<svg version="1.1" xmlns="http://www.w3.org/2000/svg" width="1254px" height="1254px" viewBox="230 250 795 735" preserveAspectRatio="xMidYMid meet">
 <g fill="#ffffff">
  
 </g>
 <g fill="#102355">
  <path d="M619.77 962.42 c-4.04 -0.98 -6.74 -2.82 -11.02 -7.47 -14.57 -15.80 -19.84 -20.21 -31.47 -26.82 -46.90 -26.70 -117.81 -43.84 -202.67 -49.11 -25.96 -1.59 -69.68 -0.12 -100.30 3.31 -10.90 1.22 -15.68 1.35 -16.78 0.37 -1.35 -0.98 -1.59 -46.66 -1.59 -243.33 0 -133.12 0.49 -242.60 0.98 -243.33 2.94 -4.41 20.45 -10.29 33.68 -11.14 l10.65 -0.73 0 221.29 0 221.41 18 -1.10 c65.15 -3.67 121.60 3.31 179.04 21.92 54.62 17.76 98.95 45.68 115.85 73.23 4.53 7.47 6.25 8.57 12.86 8.57 6.61 0 7.72 -0.86 13.72 -9.80 27.92 -41.76 110.58 -79.48 200.22 -91.11 33.43 -4.41 76.29 -5.39 104.83 -2.45 l6.98 0.73 0 -221.90 0 -222.02 7.72 0.73 c11.02 0.98 22.53 4.16 29.64 7.96 l6.12 3.31 0.37 243.70 c0.12 133.97 -0.12 243.94 -0.61 244.43 -0.61 0.37 -7.72 0.12 -15.92 -0.73 -45.19 -4.78 -80.09 -5.14 -124.05 -1.10 -37.84 3.43 -67.97 8.45 -96.13 15.92 -33.80 9.06 -53.15 16.04 -74.09 26.94 -16.16 8.33 -26.33 16.04 -34.78 26.33 -9.06 11.02 -18.86 14.82 -31.23 12z" data-index="1" style="opacity: 1;"></path>
  <path d="M336.40 787.79 c-1.10 -0.98 -1.10 -441.47 -0.12 -444.17 0.61 -1.59 2.94 -1.96 12.86 -1.96 43.60 0 93.93 13.23 138.63 36.37 16.29 8.45 41.27 24.49 41.27 26.57 0 1.84 -5.39 14.70 -73.48 175.85 -12.86 30.62 -29.27 69.56 -36.37 86.33 -7.10 16.90 -21.43 50.58 -31.72 75.07 -10.41 24.37 -18.86 44.94 -18.86 45.56 0 1.35 -30.98 1.71 -32.21 0.37z" data-index="2" style="opacity: 1;"></path>
  <path d="M885.39 785.46 c-0.73 -1.71 -19.47 -46.78 -41.88 -100.17 -22.29 -53.27 -47.03 -112.30 -54.86 -131.16 -13.84 -33.06 -54.62 -129.69 -59.88 -141.81 -1.47 -3.31 -2.57 -6.74 -2.57 -7.59 0 -2.20 23.88 -17.51 41.88 -26.82 27.31 -14.21 61.23 -25.84 91.23 -31.35 11.88 -2.33 40.41 -4.78 54.01 -4.90 l5.14 0 0 223.49 0 223.49 -15.92 0 -15.92 0 -1.22 -3.18z" data-index="3" style="opacity: 1;"></path>
  <path d="M552.30 737.70 c0 -0.37 3.80 -9.92 8.45 -21.19 4.53 -11.14 9.31 -22.90 10.53 -26.08 l2.20 -5.88 53.64 0 c33.31 0 53.76 0.49 53.76 1.22 0 0.61 4.65 12.25 10.41 25.96 5.76 13.72 10.41 25.23 10.41 25.84 0 0.49 -33.55 0.86 -74.70 0.86 -41.02 0 -74.70 -0.37 -74.70 -0.73z" data-index="4"></path>
 </g>
 <g fill="#165dcf">
  <path d="M474.54 806.90 c-14.82 -4.90 -38.09 -10.53 -50.45 -12.37 -5.76 -0.86 -10.16 -2.08 -10.16 -2.82 0 -2.08 72.01 -177.81 139.85 -341.05 10.78 -25.96 28.90 -69.44 40.17 -96.74 11.39 -27.31 22.78 -54.86 25.47 -61.23 4.04 -9.92 5.14 -11.63 7.59 -11.63 2.45 0 3.80 2.45 11.88 22.04 5.02 12.12 17.27 41.64 27.31 65.52 84.99 203.41 173.89 419.67 173.89 422.98 0 0.86 -1.84 2.08 -3.92 2.57 -2.20 0.49 -6.25 1.35 -8.94 1.96 -7.96 1.84 -18 3.67 -23.88 4.41 -3.06 0.37 -6 1.10 -6.61 1.71 -0.73 0.61 -2.33 1.10 -3.80 1.10 -1.47 0 -3.06 0.49 -3.80 1.10 -1.22 1.10 -22.53 6.61 -23.27 6 -0.12 -0.24 -3.92 -9.06 -8.33 -19.59 -10.90 -26.33 -42.13 -101.64 -45.43 -109.97 -3.67 -9.06 -39.80 -96.50 -60.01 -145.12 -8.94 -21.55 -18 -43.47 -20.21 -48.62 -3.92 -9.67 -5.51 -11.39 -6.98 -7.35 -0.98 2.69 -26.08 63.80 -51.19 124.54 -10.65 25.59 -24.86 60.37 -31.84 77.15 -6.86 16.90 -17.76 43.35 -24.25 58.78 -6.49 15.55 -15.55 37.60 -20.21 48.98 -4.90 11.88 -9.18 20.94 -10.16 21.06 -0.98 0 -6.61 -1.47 -12.74 -3.43z" data-index="5" style="opacity: 1;"></path>
 </g>
</svg>